<svg width="87" height="99" viewBox="0 0 87 99" fill="none" xmlns="http://www.w3.org/2000/svg">
<rect y="15" width="79" height="66" fill="black"/>
<g filter="url(#filter0_d)">
<path d="M6.12 22.6H33.552V27.928H12.096V44.416H31.752V49.744H12.096V67.672H33.912V73H6.12V22.6ZM67.4736 60.184C67.4736 58.168 66.8736 56.536 65.6736 55.288C64.4736 53.992 62.9616 52.864 61.1376 51.904C59.3616 50.896 57.4176 49.96 55.3056 49.096C53.1936 48.232 51.2256 47.2 49.4016 46C47.6256 44.752 46.1376 43.24 44.9376 41.464C43.7376 39.64 43.1376 37.336 43.1376 34.552C43.1376 30.616 44.5056 27.496 47.2416 25.192C49.9776 22.888 53.8656 21.736 58.9056 21.736C61.8336 21.736 64.4976 21.952 66.8976 22.384C69.2976 22.816 71.1696 23.368 72.5136 24.04L70.7136 29.296C69.6096 28.768 67.9776 28.264 65.8176 27.784C63.7056 27.304 61.3056 27.064 58.6176 27.064C55.4496 27.064 53.0736 27.784 51.4896 29.224C49.9056 30.616 49.1136 32.272 49.1136 34.192C49.1136 36.064 49.7136 37.624 50.9136 38.872C52.1136 40.12 53.6016 41.248 55.3776 42.256C57.2016 43.216 59.1696 44.176 61.2816 45.136C63.3936 46.096 65.3376 47.224 67.1136 48.52C68.9376 49.768 70.4496 51.28 71.6496 53.056C72.8496 54.832 73.4496 57.04 73.4496 59.68C73.4496 61.84 73.0656 63.784 72.2976 65.512C71.5296 67.24 70.4016 68.728 68.9136 69.976C67.4256 71.224 65.6256 72.184 63.5136 72.856C61.4016 73.528 59.0016 73.864 56.3136 73.864C52.7136 73.864 49.7376 73.576 47.3856 73C45.0336 72.472 43.2096 71.872 41.9136 71.2L43.9296 65.8C45.0336 66.424 46.6656 67.048 48.8256 67.672C50.9856 68.248 53.4096 68.536 56.0976 68.536C57.6816 68.536 59.1696 68.392 60.5616 68.104C61.9536 67.768 63.1536 67.264 64.1616 66.592C65.1696 65.872 65.9616 64.984 66.5376 63.928C67.1616 62.872 67.4736 61.624 67.4736 60.184Z" fill="white"/>
<path d="M6.12 22.6V21.6H5.12V22.6H6.12ZM33.552 22.6H34.552V21.6H33.552V22.6ZM33.552 27.928V28.928H34.552V27.928H33.552ZM12.096 27.928V26.928H11.096V27.928H12.096ZM12.096 44.416H11.096V45.416H12.096V44.416ZM31.752 44.416H32.752V43.416H31.752V44.416ZM31.752 49.744V50.744H32.752V49.744H31.752ZM12.096 49.744V48.744H11.096V49.744H12.096ZM12.096 67.672H11.096V68.672H12.096V67.672ZM33.912 67.672H34.912V66.672H33.912V67.672ZM33.912 73V74H34.912V73H33.912ZM6.12 73H5.12V74H6.12V73ZM6.12 23.6H33.552V21.6H6.12V23.6ZM32.552 22.6V27.928H34.552V22.6H32.552ZM33.552 26.928H12.096V28.928H33.552V26.928ZM11.096 27.928V44.416H13.096V27.928H11.096ZM12.096 45.416H31.752V43.416H12.096V45.416ZM30.752 44.416V49.744H32.752V44.416H30.752ZM31.752 48.744H12.096V50.744H31.752V48.744ZM11.096 49.744V67.672H13.096V49.744H11.096ZM12.096 68.672H33.912V66.672H12.096V68.672ZM32.912 67.672V73H34.912V67.672H32.912ZM33.912 72H6.12V74H33.912V72ZM7.12 73V22.6H5.12V73H7.12ZM65.6736 55.288L64.9398 55.9674L64.9462 55.9743L64.9527 55.9811L65.6736 55.288ZM61.1376 51.904L60.644 52.7737L60.6578 52.7815L60.6718 52.7889L61.1376 51.904ZM55.3056 49.096L54.9269 50.0215L54.9269 50.0215L55.3056 49.096ZM49.4016 46L48.8266 46.8182L48.8392 46.827L48.8519 46.8354L49.4016 46ZM44.9376 41.464L44.1021 42.0137L44.109 42.0239L44.9376 41.464ZM47.2416 25.192L47.8857 25.9569L47.8857 25.9569L47.2416 25.192ZM66.8976 22.384L66.7204 23.3682L66.7204 23.3682L66.8976 22.384ZM72.5136 24.04L73.4596 24.364L73.743 23.5367L72.9608 23.1456L72.5136 24.04ZM70.7136 29.296L70.2821 30.1981L71.2956 30.6829L71.6596 29.62L70.7136 29.296ZM65.8176 27.784L65.5959 28.7591L65.6006 28.7602L65.8176 27.784ZM51.4896 29.224L52.1497 29.9752L52.156 29.9696L52.1622 29.9639L51.4896 29.224ZM50.9136 38.872L51.6344 38.1789L51.6344 38.1789L50.9136 38.872ZM55.3776 42.256L54.884 43.1257L54.8978 43.1335L54.9118 43.1409L55.3776 42.256ZM61.2816 45.136L61.6954 44.2256L61.6954 44.2256L61.2816 45.136ZM67.1136 48.52L66.5241 49.3278L66.5364 49.3367L66.5489 49.3453L67.1136 48.52ZM68.9136 69.976L69.5562 70.7422L69.5562 70.7422L68.9136 69.976ZM63.5136 72.856L63.8168 73.8089L63.8168 73.8089L63.5136 72.856ZM47.3856 73L47.6234 72.0287L47.614 72.0264L47.6046 72.0243L47.3856 73ZM41.9136 71.2L40.9767 70.8502L40.6669 71.68L41.4532 72.0878L41.9136 71.2ZM43.9296 65.8L44.4216 64.9294L43.4023 64.3533L42.9927 65.4502L43.9296 65.8ZM48.8256 67.672L48.548 68.6327L48.5579 68.6356L48.5679 68.6382L48.8256 67.672ZM60.5616 68.104L60.7642 69.0833L60.7802 69.0799L60.7962 69.0761L60.5616 68.104ZM64.1616 66.592L64.7163 67.4241L64.7297 67.4151L64.7428 67.4057L64.1616 66.592ZM66.5376 63.928L65.6766 63.4193L65.6679 63.4341L65.6597 63.4491L66.5376 63.928ZM68.4736 60.184C68.4736 57.9552 67.8028 56.0597 66.3944 54.5949L64.9527 55.9811C65.9443 57.0123 66.4736 58.3808 66.4736 60.184H68.4736ZM66.4073 54.6086C65.1186 53.2168 63.5112 52.0233 61.6033 51.0191L60.6718 52.7889C62.4119 53.7047 63.8285 54.7672 64.9398 55.9674L66.4073 54.6086ZM61.6312 51.0343C59.8141 50.003 57.8312 49.0488 55.6842 48.1705L54.9269 50.0215C57.004 50.8712 58.9091 51.789 60.644 52.7737L61.6312 51.0343ZM55.6842 48.1705C53.6293 47.3298 51.7189 46.3275 49.9512 45.1646L48.8519 46.8354C50.7323 48.0725 52.7578 49.1342 54.9269 50.0215L55.6842 48.1705ZM49.9765 45.1818C48.2988 44.0029 46.8971 42.578 45.7662 40.9041L44.109 42.0239C45.378 43.902 46.9523 45.5011 48.8266 46.8182L49.9765 45.1818ZM45.773 40.9144C44.7064 39.2931 44.1376 37.1941 44.1376 34.552H42.1376C42.1376 37.4779 42.7688 39.9869 44.1021 42.0136L45.773 40.9144ZM44.1376 34.552C44.1376 30.8775 45.3997 28.0503 47.8857 25.9569L46.5974 24.4271C43.6114 26.9416 42.1376 30.3545 42.1376 34.552H44.1376ZM47.8857 25.9569C50.3799 23.8565 54.006 22.736 58.9056 22.736V20.736C53.7251 20.736 49.5752 21.9195 46.5974 24.4271L47.8857 25.9569ZM58.9056 22.736C61.7856 22.736 64.3891 22.9485 66.7204 23.3682L67.0747 21.3998C64.606 20.9554 61.8816 20.736 58.9056 20.736V22.736ZM66.7204 23.3682C69.0772 23.7924 70.8439 24.3232 72.0664 24.9344L72.9608 23.1456C71.4953 22.4128 69.518 21.8396 67.0747 21.3998L66.7204 23.3682ZM71.5675 23.716L69.7675 28.972L71.6596 29.62L73.4596 24.364L71.5675 23.716ZM71.145 28.3939C69.9385 27.8168 68.2194 27.2933 66.0345 26.8078L65.6006 28.7602C67.7358 29.2347 69.2806 29.7192 70.2821 30.1981L71.145 28.3939ZM66.0392 26.8089C63.8395 26.3089 61.3631 26.064 58.6176 26.064V28.064C61.2481 28.064 63.5716 28.2991 65.5959 28.7591L66.0392 26.8089ZM58.6176 26.064C55.3177 26.064 52.6563 26.8119 50.8169 28.4841L52.1622 29.9639C53.4909 28.7561 55.5814 28.064 58.6176 28.064V26.064ZM50.8294 28.4728C49.0532 30.0337 48.1136 31.9541 48.1136 34.192H50.1136C50.1136 32.5899 50.7579 31.1983 52.1497 29.9752L50.8294 28.4728ZM48.1136 34.192C48.1136 36.2994 48.7983 38.1149 50.1927 39.5651L51.6344 38.1789C50.6289 37.1331 50.1136 35.8286 50.1136 34.192H48.1136ZM50.1927 39.5651C51.4703 40.8938 53.0387 42.0784 54.884 43.1257L55.8712 41.3863C54.1644 40.4176 52.7568 39.3462 51.6344 38.1789L50.1927 39.5651ZM54.9118 43.1409C56.7548 44.1109 58.7403 45.0794 60.8678 46.0464L61.6954 44.2256C59.5988 43.2726 57.6483 42.3211 55.8433 41.3711L54.9118 43.1409ZM60.8678 46.0464C62.9213 46.9798 64.8059 48.074 66.5241 49.3278L67.703 47.7122C65.8692 46.374 63.8659 45.2122 61.6954 44.2256L60.8678 46.0464ZM66.5489 49.3453C68.2723 50.5245 69.6937 51.9474 70.821 53.6159L72.4782 52.4961C71.2055 50.6126 69.6028 49.0115 67.6782 47.6947L66.5489 49.3453ZM70.821 53.6159C71.8857 55.1917 72.4496 57.1929 72.4496 59.68H74.4496C74.4496 56.8871 73.8134 54.4723 72.4782 52.4961L70.821 53.6159ZM72.4496 59.68C72.4496 61.7199 72.0874 63.5227 71.3838 65.1059L73.2114 65.9181C74.0437 64.0453 74.4496 61.9601 74.4496 59.68H72.4496ZM71.3838 65.1059C70.6793 66.6909 69.6456 68.0569 68.271 69.2098L69.5562 70.7422C71.1575 69.3991 72.3799 67.7891 73.2114 65.9181L71.3838 65.1059ZM68.271 69.2098C66.8959 70.363 65.2156 71.2651 63.2104 71.9031L63.8168 73.8089C66.0356 73.1029 67.9552 72.085 69.5562 70.7422L68.271 69.2098ZM63.2104 71.9031C61.2147 72.5381 58.9198 72.864 56.3136 72.864V74.864C59.0833 74.864 61.5884 74.5179 63.8168 73.8089L63.2104 71.9031ZM56.3136 72.864C52.7589 72.864 49.8698 72.5788 47.6234 72.0287L47.1477 73.9713C49.6053 74.5732 52.6682 74.864 56.3136 74.864V72.864ZM47.6046 72.0243C45.2897 71.5046 43.5603 70.9274 42.3739 70.3122L41.4532 72.0878C42.8588 72.8166 44.7775 73.4394 47.1665 73.9757L47.6046 72.0243ZM42.8504 71.5498L44.8664 66.1498L42.9927 65.4502L40.9767 70.8502L42.8504 71.5498ZM43.4375 66.6706C44.6421 67.3514 46.3612 68.001 48.548 68.6327L49.1031 66.7113C46.9699 66.095 45.425 65.4966 44.4216 64.9294L43.4375 66.6706ZM48.5679 68.6382C50.8269 69.2406 53.3395 69.536 56.0976 69.536V67.536C53.4796 67.536 51.1442 67.2554 49.0832 66.7058L48.5679 68.6382ZM56.0976 69.536C57.742 69.536 59.2984 69.3865 60.7642 69.0833L60.359 67.1247C59.0407 67.3975 57.6211 67.536 56.0976 67.536V69.536ZM60.7962 69.0761C62.282 68.7174 63.5946 68.1718 64.7163 67.4241L63.6069 65.7599C62.7125 66.3562 61.6251 66.8186 60.3269 67.1319L60.7962 69.0761ZM64.7428 67.4057C65.8699 66.6006 66.7649 65.5995 67.4155 64.4069L65.6597 63.4491C65.1582 64.3685 64.4692 65.1434 63.5803 65.7783L64.7428 67.4057ZM67.3985 64.4367C68.1283 63.2017 68.4736 61.7715 68.4736 60.184H66.4736C66.4736 61.4765 66.1948 62.5423 65.6766 63.4193L67.3985 64.4367Z" fill="white"/>
</g>
<defs>
<filter id="filter0_d" x="1.12" y="20.736" width="77.3296" height="62.128" filterUnits="userSpaceOnUse" color-interpolation-filters="sRGB">
<feFlood flood-opacity="0" result="BackgroundImageFix"/>
<feColorMatrix in="SourceAlpha" type="matrix" values="0 0 0 0 0 0 0 0 0 0 0 0 0 0 0 0 0 0 127 0"/>
<feOffset dy="4"/>
<feGaussianBlur stdDeviation="2"/>
<feColorMatrix type="matrix" values="0 0 0 0 0 0 0 0 0 0 0 0 0 0 0 0 0 0 0.25 0"/>
<feBlend mode="normal" in2="BackgroundImageFix" result="effect1_dropShadow"/>
<feBlend mode="normal" in="SourceGraphic" in2="effect1_dropShadow" result="shape"/>
</filter>
</defs>
</svg>
